ply
format ascii 1.0
comment VTK generated PLY File
obj_info vtkPolyData points and polygons: vtk4.0
element vertex 18
property float x
property float y
property float z
element face 10
property list uchar int vertex_indices
end_header
0.5 0 0 
-0.5 0.5 0 
-0.5 0.25 0.4330126941204071 
-0.5 -0.25 0.4330126941204071 
-0.5 -0.5 6.1232342629258393e-17 
-0.5 -0.25 -0.4330126941204071 
-0.5 0.25 -0.4330126941204071 
0.5 0 0 
-0.5 0.25 0.4330126941204071 
-0.5 -0.25 0.4330126941204071 
-0.5 -0.5 6.1232342629258393e-17 
0.5 0 0 
-0.5 -0.5 6.1232342629258393e-17 
-0.5 -0.25 -0.4330126941204071 
0.5 0 0 
-0.5 -0.25 -0.4330126941204071 
-0.5 0.25 -0.4330126941204071 
-0.5 0.5 -1.2246468525851679e-16 
3 4 3 5 
3 5 3 6 
3 3 2 6 
3 1 6 2 
3 0 1 2 
3 7 8 9 
3 7 9 10 
3 11 12 13 
3 14 15 16 
3 14 16 17 
